<?xml version="1.0" standalone="no"?>
<!DOCTYPE svg PUBLIC "-//W3C//DTD SVG 20010904//EN"
 "http://www.w3.org/TR/2001/REC-SVG-20010904/DTD/svg10.dtd">
<svg version="1.0" xmlns="http://www.w3.org/2000/svg"
 width="48.000000pt" height="48.000000pt" viewBox="0 0 48.000000 48.000000"
 preserveAspectRatio="xMidYMid meet">

<g transform="translate(0.000000,48.000000) scale(0.100000,-0.100000)"
fill="#000000" stroke="none">
<path d="M20 420 c0 -14 7 -20 21 -20 16 0 28 -17 55 -75 34 -74 34 -74 17
-110 -30 -63 -17 -70 136 -73 126 -2 131 -2 131 18 0 19 -6 20 -120 20 -117 0
-120 1 -110 20 9 16 23 20 98 22 l87 3 43 75 c23 41 41 79 39 85 -2 6 -66 11
-160 13 -145 2 -156 4 -162 22 -9 29 -75 29 -75 0z m340 -67 c0 -3 -11 -26
-25 -50 l-26 -43 -69 0 c-66 0 -70 1 -83 28 -39 74 -42 72 87 72 64 0 116 -3
116 -7z"/>
<path d="M110 105 c-26 -32 13 -81 48 -59 9 6 18 19 20 28 8 38 -43 61 -68 31z"/>
<path d="M310 105 c-26 -32 13 -81 48 -59 22 14 27 41 12 59 -16 19 -44 19
-60 0z"/>
</g>
</svg>
